<svg height="437pt" viewBox="0 0 437.2176 437" width="437pt" xmlns="http://www.w3.org/2000/svg"><path d="m240.925781 88.8125c0 48.988281-39.714843 88.699219-88.703125 88.699219-48.988281 0-88.703125-39.710938-88.703125-88.699219 0-48.992188 39.714844-88.703125 88.703125-88.703125 48.988282 0 88.703125 39.710937 88.703125 88.703125zm0 0"/><path d="m250 270.796875c-27-23-61.300781-35.5-97.601562-35.5h-.296876c-41.101562.101563-79.402343 16.101563-107.703124 45.101563-27.199219 28-42.898438 65.699218-44.398438 107l260.800781-.5c-29.175781-31.925782-33.585937-79.34375-10.800781-116.101563zm0 0"/><path d="m433.601562 418.695312-39.601562-41.296874c22.957031-25.265626 28.117188-62.003907 13-92.613282-15.113281-30.609375-47.417969-48.851562-81.433594-45.984375-34.015625 2.867188-62.8125 26.261719-72.589844 58.96875-9.773437 32.703125 1.460938 68.0625 28.324219 89.128907h.597657v.5c28.207031 21.785156 67.179687 23.113281 96.800781 3.296874l42.101562 43.402344c1.785157 1.511719 4.058594 2.328125 6.398438 2.300782 2.976562.015624 5.804687-1.304688 7.699219-3.601563 1.703124-2.039063 2.519531-4.675781 2.277343-7.320313-.246093-2.644531-1.53125-5.085937-3.574219-6.78125zm-101.101562-35.398437c-34.0625.082031-61.734375-27.472656-61.800781-61.53125-.0625-34.0625 27.507812-61.722656 61.566406-61.769531 34.0625-.046875 61.707031 27.539062 61.734375 61.601562.152344 16.375-6.273438 32.125-17.832031 43.722656-11.5625 11.601563-27.292969 18.074219-43.667969 17.976563zm0 0"/></svg>